<svg width="320" height="280" viewBox="0 0 320 280" fill="none" xmlns="http://www.w3.org/2000/svg">
  <g opacity="0.88">
    <path d="M154 144C134 110 132 80 148 54C178 82 188 114 154 144Z" fill="#F3E7DD"/>
    <path d="M154 144C188 124 218 120 246 132C220 158 190 166 154 144Z" fill="#E8D2C8"/>
    <path d="M154 144C174 176 178 206 164 234C136 208 126 176 154 144Z" fill="#F3E7DD"/>
    <path d="M154 144C118 162 88 164 60 150C88 126 118 120 154 144Z" fill="#E8D2C8"/>
    <path d="M154 144C138 118 138 96 152 80C176 102 182 122 154 144Z" fill="#FFFFFF"/>
    <path d="M154 144C180 132 202 132 220 144C198 162 176 164 154 144Z" fill="#FFFFFF"/>
    <path d="M154 144C168 170 168 194 156 212C134 192 128 170 154 144Z" fill="#FFFFFF"/>
    <path d="M154 144C126 154 104 154 86 140C108 124 130 122 154 144Z" fill="#FFFFFF"/>
    <circle cx="154" cy="144" r="14" fill="#C4A44A"/>
    <circle cx="154" cy="144" r="6" fill="#8B9EB0"/>
    <path d="M164 154C194 182 214 208 224 232" stroke="#B09880" stroke-width="2" stroke-linecap="round"/>
    <path d="M142 154C124 176 110 198 102 224" stroke="#7BA368" stroke-width="2" stroke-linecap="round"/>
  </g>
</svg>
